<svg xmlns="http://www.w3.org/2000/svg" xmlns:xlink="http://www.w3.org/1999/xlink" version="1.1" x="0px" y="0px" viewBox="0 0 90 112.5" style="enable-background:new 0 0 90 90;" xml:space="preserve"><g><path d="M68.2,12h-7.1v-0.2c0-1.7-1.4-3-3-3h-5.2c-0.9-3.4-4.1-6-7.8-6c-3.7,0-6.9,2.6-7.8,6h-5.4c-1.6,0-3,1.3-3,3V12h-7.1   c-4.4,0-8,3.6-8,8v59c0,4.4,3.6,8,8,8h46.5c4.4,0,8-3.6,8-8V20C76.2,15.6,72.6,12,68.2,12z M45.1,8.8c1.2,0,2.1,0.9,2.1,2.1   c0,1.2-0.9,2.1-2.1,2.1c-1.2,0-2.1-0.9-2.1-2.1C42.9,9.7,43.9,8.8,45.1,8.8z M70.2,78.9c0,1.1-0.9,2-2,2H21.8c-1.1,0-2-0.9-2-2V20   c0-1.1,0.9-2,2-2h7.1v0.1c0,1.7,1.4,3,3,3h26.3c1.6,0,3-1.3,3-3V18h7.1c1.1,0,2,0.9,2,2V78.9z"/></g><path d="M58,45.9h-7.9v-7.9c0-2.8-2.2-5-5-5s-5,2.2-5,5v7.9h-7.9c-2.8,0-5,2.2-5,5s2.2,5,5,5h7.9v7.9c0,2.8,2.2,5,5,5s5-2.2,5-5  v-7.9H58c2.8,0,5-2.2,5-5S60.8,45.9,58,45.9z"/><text x="0" y="105" fill="#000000" font-size="5px" font-weight="bold" font-family="'Helvetica Neue', Helvetica, Arial-Unicode, Arial, Sans-serif">Created by Piger</text><text x="0" y="110" fill="#000000" font-size="5px" font-weight="bold" font-family="'Helvetica Neue', Helvetica, Arial-Unicode, Arial, Sans-serif">from the Noun Project</text></svg>